<svg xmlns="http://www.w3.org/2000/svg" width="1200" height="750" viewBox="0 0 1200 750">
  <defs>
    <linearGradient id="g" x1="0" y1="0" x2="1" y2="1">
      <stop offset="0" stop-color="#7c3aed"/>
      <stop offset="1" stop-color="#2563eb"/>
    </linearGradient>
    <filter id="blur" x="-20%" y="-20%" width="140%" height="140%">
      <feGaussianBlur stdDeviation="30"/>
    </filter>
  </defs>
  <rect width="1200" height="750" fill="#0b1220"/>
  <circle cx="380" cy="260" r="220" fill="url(#g)" opacity="0.55" filter="url(#blur)"/>
  <circle cx="820" cy="430" r="260" fill="#22c55e" opacity="0.18" filter="url(#blur)"/>
  <rect x="110" y="120" width="980" height="510" rx="28" fill="#0f172a" stroke="#334155"/>
  <rect x="140" y="160" width="260" height="18" rx="9" fill="#334155"/>
  <rect x="140" y="200" width="760" height="14" rx="7" fill="#1f2a44"/>
  <rect x="140" y="228" width="700" height="14" rx="7" fill="#1f2a44"/>
  <rect x="140" y="256" width="640" height="14" rx="7" fill="#1f2a44"/>
  <rect x="140" y="310" width="420" height="220" rx="18" fill="#111c34" stroke="#1f2a44"/>
  <rect x="580" y="310" width="480" height="18" rx="9" fill="#334155"/>
  <rect x="580" y="344" width="430" height="14" rx="7" fill="#1f2a44"/>
  <rect x="580" y="372" width="400" height="14" rx="7" fill="#1f2a44"/>
  <rect x="580" y="400" width="360" height="14" rx="7" fill="#1f2a44"/>
  <rect x="580" y="454" width="160" height="36" rx="18" fill="url(#g)"/>
  <text x="140" y="585" fill="#cbd5e1" font-family="ui-sans-serif, system-ui" font-size="28" font-weight="700">Blog Website</text>
  <text x="140" y="618" fill="#94a3b8" font-family="ui-sans-serif, system-ui" font-size="18">Preview placeholder  replace with real screenshot</text>
</svg>
