<svg xmlns="http://www.w3.org/2000/svg" width="1200" height="750" viewBox="0 0 1200 750">
  <defs>
    <linearGradient id="g" x1="0" y1="0" x2="1" y2="1">
      <stop offset="0" stop-color="#06b6d4"/>
      <stop offset="1" stop-color="#a78bfa"/>
    </linearGradient>
    <filter id="blur" x="-20%" y="-20%" width="140%" height="140%">
      <feGaussianBlur stdDeviation="28"/>
    </filter>
  </defs>
  <rect width="1200" height="750" fill="#070a12"/>
  <circle cx="340" cy="420" r="260" fill="url(#g)" opacity="0.45" filter="url(#blur)"/>
  <circle cx="900" cy="260" r="220" fill="#2563eb" opacity="0.18" filter="url(#blur)"/>
  <rect x="120" y="120" width="960" height="510" rx="28" fill="#0b1220" stroke="#22304a"/>
  <rect x="160" y="160" width="210" height="400" rx="18" fill="#0f172a" stroke="#22304a"/>
  <rect x="420" y="160" width="620" height="22" rx="11" fill="#22304a"/>
  <rect x="420" y="210" width="290" height="150" rx="18" fill="#0f172a" stroke="#22304a"/>
  <rect x="750" y="210" width="290" height="150" rx="18" fill="#0f172a" stroke="#22304a"/>
  <rect x="420" y="390" width="620" height="170" rx="18" fill="#0f172a" stroke="#22304a"/>
  <rect x="450" y="420" width="560" height="12" rx="6" fill="#22304a"/>
  <rect x="450" y="446" width="520" height="12" rx="6" fill="#22304a"/>
  <rect x="450" y="472" width="480" height="12" rx="6" fill="#22304a"/>
  <text x="160" y="585" fill="#e2e8f0" font-family="ui-sans-serif, system-ui" font-size="28" font-weight="700">CRM Dashboard</text>
  <text x="160" y="618" fill="#94a3b8" font-family="ui-sans-serif, system-ui" font-size="18">Preview placeholder  replace with real screenshot</text>
</svg>
